<svg width="41" height="56" viewBox="0 0 41 56" fill="none" xmlns="http://www.w3.org/2000/svg">
<path d="M39.3113 6.85344H14.9168C14.6416 5.07598 13.8702 3.44805 12.7039 2.20795C11.3649 0.784109 9.62272 0 7.79848 0C3.81019 0 0.565491 3.73363 0.565491 8.32289C0.565491 12.9122 3.81019 16.6458 7.79848 16.6458C8.53076 16.6458 9.2503 16.5178 9.94466 16.269C11.0327 17.4502 12.3808 18.3339 13.9034 18.7895C14.887 19.0839 15.6343 20.0179 15.807 21.1692L16.7248 27.2869C17.0491 29.4483 18.0943 31.322 19.668 32.5629C20.8612 33.5037 21.5735 35.0378 21.5735 36.6667V49.1358C21.023 49.5373 20.6703 50.243 20.6703 51.0216C20.6703 51.0453 20.6706 51.0689 20.6713 51.0926C18.8671 51.5169 17.3811 51.9077 16.253 52.2545C15.4845 52.4907 14.9048 52.6991 14.4805 52.8915C14.0853 53.0707 13.3496 53.4044 13.3496 54.1789C13.3496 55.2196 14.5255 55.3972 15.4703 55.5401C16.2821 55.6628 17.4066 55.765 18.8128 55.844C21.1884 55.9776 23.5949 55.9998 23.6189 56C23.6208 56 23.6226 56 23.6244 56C23.6262 56 23.6281 56 23.6298 56C23.6538 55.9998 26.0604 55.9775 28.4359 55.844C29.8421 55.765 30.9667 55.6628 31.7784 55.5401C32.7232 55.3972 33.8991 55.2196 33.8991 54.1789C33.8991 53.3558 33.2394 52.9312 30.8301 52.2039C29.3701 51.7632 27.5512 51.3183 26.2449 51.0147C26.2433 50.4148 26.036 49.8541 25.6752 49.4417V36.6665C25.6752 35.0377 26.3876 33.5036 27.5808 32.5628C29.1544 31.3219 30.1996 29.4482 30.5239 27.2868L31.4417 21.1691C31.6144 20.0178 32.3616 19.0837 33.3453 18.7894C36.6437 17.8024 39.1245 14.8092 39.9091 11.1234C39.9121 11.1092 39.9153 11.0952 39.9178 11.0808C40.0835 10.2879 40.1725 9.464 40.1725 8.62061V7.84459C40.1725 7.29805 39.7862 6.85344 39.3113 6.85344ZM7.79848 14.9839C4.60653 14.9839 2.00971 11.9958 2.00971 8.32289C2.00971 4.64997 4.60653 1.66184 7.79848 1.66184C9.25838 1.66184 10.6524 2.28922 11.7238 3.42847C12.5932 4.3528 13.188 5.54575 13.4438 6.85344H12.7042C12.1326 4.31988 10.1264 2.48828 7.79848 2.48828C5.00252 2.48828 2.72793 5.10573 2.72793 8.32289C2.72793 11.54 5.00262 14.1575 7.79848 14.1575C8.00664 14.1575 8.21528 14.1413 8.42307 14.1115C8.56165 14.3717 8.71003 14.6244 8.86753 14.8695C8.5166 14.9454 8.15939 14.9839 7.79848 14.9839ZM10.0097 5.7785C9.72775 5.45409 9.27045 5.45409 8.98853 5.7785L8.77257 6.027C8.57809 6.25067 8.51783 6.57027 8.5915 6.85344H7.93773C7.46275 6.85344 7.07637 7.29805 7.07637 7.84459V8.62061C7.07637 9.46378 7.16524 10.2875 7.33092 11.0801C7.33348 11.0955 7.33691 11.1105 7.34014 11.1256C7.43985 11.5935 7.56598 12.0506 7.71863 12.4935C5.7559 12.4443 4.17205 10.593 4.17205 8.32289C4.17205 6.02197 5.79887 4.15002 7.79848 4.15002C9.33262 4.15002 10.6718 5.2617 11.1924 6.85344H10.0829C10.2882 6.52848 10.2643 6.07152 10.0097 5.7785ZM25.8526 52.6189C28.3911 53.2067 29.9849 53.6522 30.9823 53.974C29.1581 54.1802 26.2317 54.3152 23.6245 54.3382C21.0177 54.3152 18.0917 54.1802 16.2673 53.9742C17.2214 53.6663 18.7204 53.2454 21.0697 52.6949C21.7196 52.5428 22.1695 51.8425 22.1162 51.0666C22.1151 51.0518 22.1146 51.0367 22.1146 51.0215C22.1146 50.7641 22.2658 50.5378 22.4824 50.471C22.7982 50.3737 23.0177 50.0445 23.0177 49.6684V36.6665C23.0177 35.5725 22.7784 34.5115 22.3392 33.568C22.7428 33.5981 23.1834 33.6135 23.6245 33.6135C24.0655 33.6135 24.5062 33.5981 24.9097 33.568C24.4705 34.5116 24.2312 35.5726 24.2312 36.6665V49.8361C24.2312 50.1212 24.3583 50.3864 24.5678 50.5386C24.7137 50.6446 24.8008 50.825 24.8008 51.0214C24.8008 51.034 24.8004 51.0466 24.7999 51.0581C24.7582 51.7994 25.2108 52.4704 25.8526 52.6189ZM38.7285 8.62061H38.7284C38.7284 9.12012 38.6919 9.61166 38.6218 10.0917H16.8833C16.4845 10.0917 16.1612 10.4637 16.1612 10.9226C16.1612 11.3815 16.4844 11.7535 16.8833 11.7535H38.2299C37.3664 14.3772 35.4453 16.4442 32.9821 17.1812C31.4509 17.6393 30.2878 19.0937 30.0189 20.8865L29.1011 27.0041C28.8437 28.7198 28.014 30.2071 26.7647 31.1921C26.571 31.3449 25.9957 31.7017 25.8908 31.7555C25.3193 32.0147 21.9344 32.0148 21.3592 31.756C21.2545 31.7028 20.6786 31.3453 20.4843 31.1922C19.235 30.2071 18.4053 28.7198 18.1479 27.0042L17.2301 20.8866C16.9612 19.0938 15.798 17.6395 14.2669 17.1813C12.8731 16.7642 11.6532 15.921 10.6997 14.7925C10.677 14.7604 10.6522 14.7308 10.6261 14.7033C9.92964 13.856 9.38129 12.8541 9.01914 11.7537H13.5237C13.9224 11.7537 14.2458 11.3817 14.2458 10.9227C14.2458 10.4639 13.9225 10.0918 13.5237 10.0918H8.62724C8.55709 9.61176 8.52059 9.12012 8.52059 8.62072V8.51528H38.7285V8.62061Z" fill="#071F41"/>
</svg>
