<svg width="57" height="57" viewBox="0 0 57 57" fill="none" xmlns="http://www.w3.org/2000/svg">
<path d="M56.9378 44.5803L56.7233 43.2832C56.5865 42.4543 55.9403 41.8528 55.1867 41.8528C55.0921 41.8528 54.9968 41.8625 54.9029 41.8818L50.5348 42.7805L52.513 41.2994C53.0314 40.9113 53.2934 40.2171 53.1804 39.5284C53.149 39.3398 53.0901 39.1588 53.0048 38.9893L52.4062 37.8021C52.2011 37.3942 51.8513 37.0911 51.4475 36.971C51.2498 36.9119 51.043 36.8988 50.8413 36.9282C51.0616 35.5666 51.1752 34.1759 51.1752 32.7602C51.1752 32.1321 50.8379 31.5915 50.3562 31.3515C50.9857 29.6746 51.0286 27.7548 50.4064 25.9967C50.3559 25.8538 50.281 25.7262 50.184 25.6174C50.0878 25.5096 49.9751 25.4263 49.8474 25.3688C49.1017 25.0362 48.3181 24.8677 47.5182 24.8677C47.4159 24.8677 47.3141 24.8706 47.2125 24.876C47.0984 22.3003 45.195 20.2441 42.8714 20.2441C42.5654 20.2441 42.2671 20.2805 41.9789 20.3484C42.1791 19.0072 42.0612 17.6041 41.5948 16.2868C41.5447 16.142 41.4695 16.012 41.3672 15.8956C41.2687 15.7854 41.1533 15.7003 41.0252 15.6434C40.222 15.2851 39.3778 15.1035 38.516 15.1035C37.2179 15.1035 35.9761 15.5122 34.9041 16.2721C34.5124 15.0014 33.8665 13.8085 32.9641 12.7955C32.6998 12.4989 32.3482 12.3355 31.9741 12.3355C31.6 12.3355 31.2485 12.4989 30.9838 12.7957L26.9944 17.2741C26.2561 16.5366 25.2846 16.0957 24.2301 16.0957C23.9908 16.0957 23.7492 16.1192 23.512 16.1655C22.6526 16.3331 21.8617 16.8042 21.2554 17.4942C20.4779 17.074 19.5872 16.9307 18.7313 17.0975C18.5429 17.1342 18.3602 17.1859 18.1829 17.2489V13.7979C18.1829 11.4214 16.4775 9.48454 14.3679 9.44369V7.48651C15.0137 7.36137 15.5068 6.73101 15.5068 5.97255V1.53808C15.5068 0.690044 14.8908 0 14.1335 0H7.43285C6.67556 0 6.05956 0.690044 6.05956 1.53808V5.97255C6.05956 6.73101 6.55263 7.36137 7.1984 7.48651V9.44344C5.08881 9.48417 3.38352 11.421 3.38352 13.7977V40.732C1.73844 42.396 0.714294 44.7178 0.714294 47.2853C0.714294 52.3358 4.6721 56.4448 9.53705 56.4448L42.5164 56.434C43.6421 56.4335 44.7007 55.8794 45.4208 54.914C46.1221 53.9742 46.4202 52.7534 46.2485 51.5495L52.8355 52.8754C52.9267 52.8937 53.0201 52.9031 53.1127 52.9031C53.4412 52.9031 53.756 52.7901 54.0225 52.5767C54.3652 52.3026 54.5971 51.8782 54.6589 51.4127L54.8373 50.0719C54.8631 49.8798 54.8602 49.6864 54.8289 49.4968C54.7155 48.8112 54.2494 48.2672 53.6413 48.1111L51.3195 47.5146L55.6834 46.6167C56.0949 46.5321 56.452 46.2733 56.6889 45.8881C56.9253 45.5038 57.0136 45.0394 56.9378 44.5803ZM47.5182 26.7131C48.0142 26.7131 48.5019 26.8011 48.9708 26.9745C49.3898 28.4035 49.2329 29.9449 48.5768 31.2182H46.3571L47.0654 30.4231C47.3869 30.0623 47.3862 29.478 47.064 29.1179C46.7418 28.7579 46.22 28.7585 45.8988 29.1194L45.5241 29.5401C45.3484 28.8923 45.0416 28.3122 44.6385 27.8364C45.4563 27.1091 46.4602 26.7131 47.5182 26.7131ZM42.8714 22.0895C44.3595 22.0895 45.5701 23.4494 45.5701 25.121C45.5701 25.152 45.5688 25.1827 45.568 25.2134C44.6994 25.5298 43.8989 26.0583 43.2161 26.776C43.1074 26.7299 42.9972 26.687 42.884 26.652C42.643 25.1936 41.7655 24.0247 40.6064 23.4787C41.0875 22.644 41.9222 22.0895 42.8714 22.0895ZM38.5159 16.9489C39.0755 16.9489 39.6255 17.0503 40.1555 17.2509C40.5814 18.6693 40.4944 20.193 39.9517 21.5128C39.5055 21.968 39.1435 22.5254 38.8961 23.1519C38.749 23.1615 38.6019 23.1797 38.4566 23.208C37.8109 23.3339 37.2089 23.6477 36.705 24.1027C36.5332 23.7508 36.3228 23.4261 36.0818 23.1337L37.9713 21.0126C38.2928 20.6519 38.2921 20.0675 37.9699 19.7076C37.6478 19.3476 37.126 19.3482 36.8046 19.7091L34.7394 22.0274C34.3464 21.8193 33.9217 21.6746 33.4753 21.6069C33.6681 20.5057 34.1452 19.468 34.8833 18.6394C35.8544 17.5492 37.1445 16.9489 38.5159 16.9489ZM32.2021 31.2182H31.4879C31.3676 30.8754 31.0702 30.6324 30.7214 30.6324C30.3725 30.6324 30.0751 30.8755 29.9548 31.2182H29.1146C29.3097 30.8624 29.2703 30.3909 28.9949 30.083C28.6727 29.723 28.151 29.7236 27.8295 30.0844L27.0529 30.956C26.9832 31.0343 26.9295 31.1235 26.8901 31.2182H25.2131C24.585 30.1387 24.2017 28.8646 24.1563 27.4939H37.2284C37.183 28.8646 36.7997 30.1387 36.1716 31.2182H34.4265C34.3871 31.1235 34.3333 31.0341 34.2637 30.9559L33.4872 30.0842C33.1656 29.7236 32.6441 29.7226 32.3219 30.0828C32.0463 30.3906 32.0069 30.8622 32.2021 31.2182ZM30.2857 25.6482C30.5963 24.359 31.6463 23.4077 32.8906 23.4077C34.135 23.4077 35.185 24.3591 35.4956 25.6482H30.2857ZM31.9707 14.3007C32.7545 15.2494 33.2727 16.3758 33.5268 17.5597C33.1061 18.0717 32.7567 18.6375 32.481 19.2395C32.3559 19.1536 32.2092 19.1033 32.0518 19.1033H30.9538C30.4988 19.1033 30.1299 19.5165 30.1299 20.0262C30.1299 20.5358 30.4988 20.949 30.9538 20.949H31.917C31.8628 21.2038 31.8208 21.4618 31.7902 21.7216C31.463 21.8179 31.1506 21.9549 30.8581 22.1294C30.3089 21.0679 29.3995 20.2768 28.322 19.9595C28.3216 19.9569 28.3212 19.9543 28.3207 19.9517C28.2561 19.5341 28.1434 19.1379 27.9897 18.7696L31.9707 14.3007ZM17.0757 22.628C17.0274 22.4766 16.9908 22.3214 16.9667 22.1656C16.7304 20.6397 17.6489 19.1818 19.0137 18.9157C19.1576 18.8876 19.3039 18.8733 19.4482 18.8733C19.991 18.8733 20.5098 19.0673 20.9483 19.4341C21.1297 19.5859 21.3591 19.6473 21.5823 19.604C21.8055 19.5606 22.003 19.4162 22.1282 19.2047C22.515 18.5512 23.1069 18.1176 23.7946 17.9835C23.9389 17.9553 24.0854 17.9412 24.2301 17.9412C25.4509 17.9412 26.4884 18.9194 26.697 20.2673C26.7209 20.4218 26.7332 20.5827 26.7334 20.7457C26.7342 21.2234 27.0604 21.6216 27.4853 21.6634C28.4065 21.7541 29.1907 22.4034 29.5543 23.3182C29.0676 23.9724 28.7302 24.7712 28.6021 25.6482H23.903C23.3188 25.6482 22.8175 26.0521 22.6084 26.6238C21.5746 25.8352 20.3562 25.4103 19.0794 25.4103C18.2795 25.4103 17.4958 25.579 16.7497 25.9117C16.6231 25.9683 16.5099 26.0519 16.4135 26.1599C16.3157 26.2694 16.2407 26.3978 16.1914 26.5385C16.0018 27.0741 15.8754 27.6248 15.807 28.1789C15.5117 27.8023 15.3036 27.3341 15.2223 26.8087C15.0285 25.5566 15.6138 24.3099 16.6451 23.7769C17.0327 23.5765 17.2195 23.078 17.0757 22.628ZM19.532 30.9659L19.7568 31.2182H17.7779C17.3336 30.0638 17.2661 28.7498 17.6268 27.5174C18.0964 27.3437 18.5838 27.2559 19.0794 27.2559C20.321 27.2559 21.4889 27.7994 22.3679 28.7861C22.4848 28.9174 22.5937 29.0549 22.696 29.1971C22.8356 29.9051 23.0502 30.5815 23.3266 31.2181H22.0848L20.6987 29.6621C20.3771 29.3014 19.8554 29.3004 19.5335 29.6606C19.2112 30.0207 19.2106 30.6051 19.532 30.9659ZM16.023 31.2182H13.0856C13.2166 30.3243 13.6967 29.5623 14.3631 29.1129C14.7576 29.7049 15.2725 30.1835 15.8658 30.5078C15.9078 30.7472 15.9593 30.9846 16.023 31.2182ZM7.7075 1.8457H13.8588V5.66493H7.7075V1.8457ZM12.72 7.51063V9.4416H8.84645V7.51063H12.72ZM5.03157 17.5403H10.3822C10.8374 17.5403 11.2062 17.1271 11.2062 16.6174C11.2062 16.1078 10.8374 15.6946 10.3822 15.6946H5.03157V13.7977C5.03157 12.4134 6.03396 11.2873 7.26608 11.2873H14.3004C15.5326 11.2873 16.535 12.4134 16.535 13.7977V15.6946H14.9965C14.5413 15.6946 14.1725 16.1078 14.1725 16.6174C14.1725 17.1271 14.5413 17.5403 14.9965 17.5403H16.535V18.3594C15.5909 19.396 15.1006 20.9163 15.3428 22.4801C15.3432 22.4832 15.3437 22.4864 15.3442 22.4896C14.0223 23.5053 13.318 25.3111 13.5985 27.124C13.6148 27.2298 13.6354 27.3339 13.6578 27.4369C13.2461 27.6911 12.8764 28.0194 12.5596 28.4035H5.03157V17.5403ZM5.03147 30.2491H11.6028C11.5154 30.5602 11.4536 30.8839 11.4235 31.2182H11.2846C10.5263 31.2182 9.90916 31.9099 9.90916 32.76C9.90916 34.2254 10.0308 35.6639 10.2664 37.0713C10.0297 37.05 9.78688 37.0386 9.53991 37.0386C8.54345 37.0386 7.59402 37.2156 6.86683 37.5373C5.75447 38.0292 5.44697 38.7277 5.37984 39.2111C5.26196 39.2768 5.14616 39.3462 5.03147 39.4172V30.2491ZM15.4652 41.586C15.762 41.8519 15.9434 42.0779 16.0485 42.241C16.0386 42.2411 16.0283 42.2412 16.0179 42.2412C15.5515 42.2412 14.7136 42.0307 13.7607 41.4399C13.406 41.2198 13.0791 40.9711 12.8155 40.721C12.5081 40.4292 12.0573 40.4295 11.7501 40.7211C11.4865 40.9715 11.1597 41.2201 10.8053 41.4397C9.85225 42.0307 9.01432 42.2412 8.54806 42.2412C8.53741 42.2412 8.52719 42.2411 8.51719 42.241C8.62222 42.0779 8.80361 41.8518 9.10046 41.5857C9.35984 41.3532 9.46916 40.9688 9.37764 40.6111C9.28601 40.2533 9.01158 39.992 8.68144 39.9487C7.87735 39.8432 7.36891 39.6139 7.13083 39.4471C7.42911 39.239 8.18321 38.8843 9.54024 38.8843C10.6641 38.8843 11.4856 39.1489 11.8795 39.3967C12.1301 39.5542 12.4357 39.5542 12.6863 39.3969C13.0805 39.1491 13.902 38.8844 15.0259 38.8844C16.383 38.8844 17.137 39.2393 17.4352 39.4472C17.1972 39.6142 16.6887 39.8433 15.8844 39.9489C15.5542 39.9923 15.2797 40.2534 15.1882 40.6113C15.0963 40.9692 15.2056 41.3536 15.4652 41.586ZM13.817 52.8184L13.8453 52.9894C13.9433 53.5821 14.15 54.1261 14.4387 54.5991H9.53705C5.58089 54.5991 2.36224 51.3182 2.36224 47.2853C2.36224 44.5291 3.86604 42.1253 6.08044 40.8788C6.33477 41.0915 6.65183 41.2748 7.028 41.4227C6.87881 41.708 6.77488 42.0149 6.75038 42.335C6.71786 42.7605 6.83409 43.1646 7.07799 43.4729C7.40022 43.8804 7.89482 44.087 8.54806 44.087C9.41862 44.087 10.5609 43.701 11.6035 43.0545C11.8435 42.9058 12.0705 42.7487 12.283 42.5845C12.4953 42.7485 12.7223 42.9057 12.9625 43.0547C14.0051 43.701 15.1473 44.0869 16.0179 44.087H16.018C16.671 44.087 17.1656 43.8804 17.4877 43.473C17.7317 43.1647 17.8481 42.7606 17.8154 42.335C17.7909 42.0149 17.687 41.708 17.5378 41.4227C17.914 41.2747 18.2312 41.0913 18.4855 40.8788C20.2416 41.8674 21.5502 43.584 22.0168 45.627L16.1891 48.1065C14.4833 48.8324 13.4856 50.814 13.817 52.8184ZM44.156 53.7307C43.7498 54.2755 43.1518 54.5881 42.5157 54.5883L41.6508 54.5887L41.1105 51.3212C41.0276 50.82 40.5979 50.4886 40.1502 50.5818C39.7029 50.6746 39.4072 51.156 39.4901 51.6572L39.975 54.5893L37.1399 54.5905L36.7746 52.381C36.6916 51.8798 36.2618 51.5488 35.8143 51.6416C35.3669 51.7344 35.0713 52.2158 35.1541 52.717L35.4639 54.5913L28.8694 54.5941L28.373 51.5932C28.29 51.0921 27.8604 50.7611 27.4127 50.854C26.9653 50.9467 26.6697 51.4283 26.7526 51.9295L27.1934 54.5948L17.5646 54.599C17.5644 54.599 17.5642 54.599 17.564 54.599C16.5343 54.599 15.6519 53.7808 15.4654 52.6529L15.437 52.4819C15.2508 51.3553 15.8131 50.2408 16.774 49.8318L20.0125 48.4539L20.2537 49.9123C20.3272 50.3566 20.6735 50.6672 21.0629 50.6672C21.1127 50.6672 21.1633 50.662 21.214 50.6516C21.6614 50.5587 21.9569 50.0772 21.874 49.576L21.5781 47.7878L26.3852 45.7425C26.8106 45.5615 27.0245 45.0285 26.8629 44.552C26.7013 44.0755 26.2248 43.836 25.8 44.017L23.5631 44.9688C22.9356 42.4804 21.3235 40.4018 19.1856 39.2109C19.1185 38.7276 18.811 38.0291 17.6988 37.5371C16.9716 37.2155 16.0221 37.0384 15.0257 37.0384C14.3399 37.0384 13.685 37.1232 13.1069 37.2776V36.7202C13.1069 36.2106 12.7381 35.7974 12.283 35.7974C12.0906 35.7974 11.9142 35.8717 11.7739 35.9955C11.6439 35.0329 11.5712 34.0552 11.5591 33.0637H38.3973C38.8524 33.0637 39.2212 32.6505 39.2212 32.1408C39.2212 31.6312 38.8524 31.218 38.3973 31.218H38.0601C38.5848 30.0077 38.8812 28.6507 38.8812 27.2166C38.8812 26.4024 38.325 25.7317 37.6161 25.6555C37.9247 25.3296 38.3099 25.1098 38.7393 25.026C38.865 25.0016 38.9927 24.9891 39.1188 24.9891C40.1826 24.9891 41.0866 25.8415 41.2682 27.0156C41.2892 27.1515 41.2999 27.2918 41.3 27.4327C41.3006 27.9106 41.6269 28.309 42.0519 28.3509C43.0366 28.4477 43.8423 29.2772 44.0111 30.3679C44.056 30.6579 44.0504 30.9441 44.0054 31.218H43.1214C42.6662 31.218 42.2974 31.6312 42.2974 32.1408C42.2974 32.6505 42.6662 33.0637 43.1214 33.0637H49.5255C49.505 34.7565 49.3104 36.4102 48.9473 38.0146L44.4818 40.9669C44.2087 39.9023 43.5739 38.9993 42.6993 38.451C41.7183 37.8362 40.5525 37.7401 39.5012 38.1873L30.3044 42.1004C29.8789 42.2814 29.6651 42.8145 29.8267 43.2909C29.9883 43.7675 30.4647 44.0067 30.8896 43.8259L32.1011 43.3105L32.4773 45.5852C32.5508 46.0296 32.8971 46.3403 33.2865 46.3403C33.3363 46.3403 33.3868 46.3351 33.4376 46.3246C33.885 46.2319 34.1806 45.7504 34.0978 45.2492L33.667 42.6443L40.0862 39.913C40.681 39.6601 41.3399 39.7143 41.8944 40.0619C42.4479 40.4088 42.8313 41.0068 42.9465 41.7023L44.6134 51.7816C44.7283 52.4767 44.5617 53.187 44.156 53.7307ZM47.096 46.5071C46.7116 46.5862 46.4298 46.9568 46.4211 47.3945C46.4125 47.8322 46.6797 48.2163 47.0606 48.3142L53.1953 49.8901L53.0421 51.0417L45.9302 49.6103L44.8185 42.8878L51.013 38.7923L51.529 39.8157L46.3042 43.7275C45.9793 43.9707 45.8517 44.4361 45.9987 44.8417C46.1455 45.2472 46.5268 45.4815 46.9111 45.4024L55.1185 43.7138L55.3013 44.8188L47.096 46.5071Z" fill="#FF751D"/>
</svg>
